<?xml version="1.0" encoding="UTF-8" standalone="no"?>
<!-- Created with Inkscape (http://www.inkscape.org/) -->

<svg
   xmlns:dc="http://purl.org/dc/elements/1.1/"
   xmlns:cc="http://creativecommons.org/ns#"
   xmlns:rdf="http://www.w3.org/1999/02/22-rdf-syntax-ns#"
   xmlns:svg="http://www.w3.org/2000/svg"
   xmlns="http://www.w3.org/2000/svg"
   xmlns:xlink="http://www.w3.org/1999/xlink"
   xmlns:sodipodi="http://sodipodi.sourceforge.net/DTD/sodipodi-0.dtd"
   xmlns:inkscape="http://www.inkscape.org/namespaces/inkscape"
   width="744.09448819"
   height="1052.3622047"
   id="svg2"
   sodipodi:version="0.32"
   inkscape:version="0.47pre4 r22446"
   sodipodi:docname="SimpleTestSuite.svg"
   inkscape:output_extension="org.inkscape.output.svg.inkscape"
   inkscape:export-filename="/home/lexa/workspaces/TiniusOlsen/ExTestSuite/rc/pattern/lopatka.png"
   inkscape:export-xdpi="89.881584"
   inkscape:export-ydpi="89.881584"
   version="1.1">
  <defs
     id="defs4">
    <linearGradient
       id="linearGradient3252">
      <stop
         style="stop-color:#ffffff;stop-opacity:1;"
         offset="0"
         id="stop3254" />
      <stop
         style="stop-color:#666666;stop-opacity:1;"
         offset="1"
         id="stop3256" />
    </linearGradient>
    <radialGradient
       inkscape:collect="always"
       xlink:href="#linearGradient3252"
       id="radialGradient4710"
       cx="187.56598"
       cy="382.92358"
       fx="187.56598"
       fy="382.92358"
       r="152.32185"
       gradientTransform="matrix(0.29204716,0,0,0.15052949,150.63129,386.01793)"
       gradientUnits="userSpaceOnUse"
       spreadMethod="pad" />
    <inkscape:perspective
       sodipodi:type="inkscape:persp3d"
       inkscape:vp_x="2.0203051 : 461.53133 : 1"
       inkscape:vp_y="6.1230318e-14 : 1000 : 0"
       inkscape:vp_z="746.11479 : 461.53133 : 1"
       inkscape:persp3d-origin="374.06755 : 286.13763 : 1"
       id="perspective10" />
    <inkscape:perspective
       id="perspective3860"
       inkscape:persp3d-origin="0.5 : 0.33333333 : 1"
       inkscape:vp_z="1 : 0.5 : 1"
       inkscape:vp_y="0 : 1000 : 0"
       inkscape:vp_x="0 : 0.5 : 1"
       sodipodi:type="inkscape:persp3d" />
    <inkscape:perspective
       id="perspective3943"
       inkscape:persp3d-origin="0.5 : 0.33333333 : 1"
       inkscape:vp_z="1 : 0.5 : 1"
       inkscape:vp_y="0 : 1000 : 0"
       inkscape:vp_x="0 : 0.5 : 1"
       sodipodi:type="inkscape:persp3d" />
    <linearGradient
       id="linearGradient3252-5">
      <stop
         style="stop-color:#ffffff;stop-opacity:1;"
         offset="0"
         id="stop3254-6" />
      <stop
         style="stop-color:#666666;stop-opacity:1;"
         offset="1"
         id="stop3256-9" />
    </linearGradient>
    <inkscape:perspective
       id="perspective4091"
       inkscape:persp3d-origin="0.5 : 0.33333333 : 1"
       inkscape:vp_z="1 : 0.5 : 1"
       inkscape:vp_y="0 : 1000 : 0"
       inkscape:vp_x="0 : 0.5 : 1"
       sodipodi:type="inkscape:persp3d" />
    <radialGradient
       inkscape:collect="always"
       xlink:href="#linearGradient3252-5"
       id="radialGradient4110"
       gradientUnits="userSpaceOnUse"
       gradientTransform="matrix(0.21779755,0,0,0.11083629,219.01849,742.67197)"
       spreadMethod="pad"
       cx="187.56598"
       cy="382.92358"
       fx="187.56598"
       fy="382.92358"
       r="152.32185" />
    <radialGradient
       inkscape:collect="always"
       xlink:href="#linearGradient3252-5"
       id="radialGradient4112"
       gradientUnits="userSpaceOnUse"
       gradientTransform="matrix(0.21779755,0,0,0.11083629,200.357,729.89116)"
       spreadMethod="pad"
       cx="187.56598"
       cy="382.92358"
       fx="187.56598"
       fy="382.92358"
       r="152.32185" />
    <inkscape:perspective
       id="perspective4125"
       inkscape:persp3d-origin="0.5 : 0.33333333 : 1"
       inkscape:vp_z="1 : 0.5 : 1"
       inkscape:vp_y="0 : 1000 : 0"
       inkscape:vp_x="0 : 0.5 : 1"
       sodipodi:type="inkscape:persp3d" />
    <radialGradient
       inkscape:collect="always"
       xlink:href="#linearGradient3252-5-8"
       id="radialGradient4112-2"
       gradientUnits="userSpaceOnUse"
       gradientTransform="matrix(1,0,0,0.5154283,124.26063,468.34418)"
       spreadMethod="pad"
       cx="187.56598"
       cy="382.92358"
       fx="187.56598"
       fy="382.92358"
       r="152.32185" />
    <linearGradient
       id="linearGradient3252-5-8">
      <stop
         style="stop-color:#ffffff;stop-opacity:1;"
         offset="0"
         id="stop3254-6-3" />
      <stop
         style="stop-color:#666666;stop-opacity:1;"
         offset="1"
         id="stop3256-9-8" />
    </linearGradient>
    <inkscape:perspective
       id="perspective4935"
       inkscape:persp3d-origin="0.5 : 0.33333333 : 1"
       inkscape:vp_z="1 : 0.5 : 1"
       inkscape:vp_y="0 : 1000 : 0"
       inkscape:vp_x="0 : 0.5 : 1"
       sodipodi:type="inkscape:persp3d" />
    <radialGradient
       inkscape:collect="always"
       xlink:href="#linearGradient3252-5-9"
       id="radialGradient4110-4"
       gradientUnits="userSpaceOnUse"
       gradientTransform="matrix(1,0,0,0.5154283,90.673056,494.15357)"
       spreadMethod="pad"
       cx="187.56598"
       cy="382.92358"
       fx="187.56598"
       fy="382.92358"
       r="152.32185" />
    <linearGradient
       id="linearGradient3252-5-9">
      <stop
         style="stop-color:#ffffff;stop-opacity:1;"
         offset="0"
         id="stop3254-6-9" />
      <stop
         style="stop-color:#666666;stop-opacity:1;"
         offset="1"
         id="stop3256-9-3" />
    </linearGradient>
    <inkscape:perspective
       id="perspective4973"
       inkscape:persp3d-origin="0.5 : 0.33333333 : 1"
       inkscape:vp_z="1 : 0.5 : 1"
       inkscape:vp_y="0 : 1000 : 0"
       inkscape:vp_x="0 : 0.5 : 1"
       sodipodi:type="inkscape:persp3d" />
    <inkscape:perspective
       id="perspective4995"
       inkscape:persp3d-origin="0.5 : 0.33333333 : 1"
       inkscape:vp_z="1 : 0.5 : 1"
       inkscape:vp_y="0 : 1000 : 0"
       inkscape:vp_x="0 : 0.5 : 1"
       sodipodi:type="inkscape:persp3d" />
  </defs>
  <sodipodi:namedview
     id="base"
     pagecolor="#ffffff"
     bordercolor="#666666"
     borderopacity="1.0"
     gridtolerance="10000"
     guidetolerance="10"
     objecttolerance="10"
     inkscape:pageopacity="0.0"
     inkscape:pageshadow="2"
     inkscape:zoom="5.6568542"
     inkscape:cx="260.51343"
     inkscape:cy="271.70314"
     inkscape:document-units="px"
     inkscape:current-layer="layer2"
     showgrid="false"
     inkscape:window-width="1272"
     inkscape:window-height="701"
     inkscape:window-x="0"
     inkscape:window-y="0"
     showguides="true"
     inkscape:guide-bbox="true"
     inkscape:window-maximized="0" />
  <metadata
     id="metadata7">
    <rdf:RDF>
      <cc:Work
         rdf:about="">
        <dc:format>image/svg+xml</dc:format>
        <dc:type
           rdf:resource="http://purl.org/dc/dcmitype/StillImage" />
        <dc:title></dc:title>
      </cc:Work>
    </rdf:RDF>
  </metadata>
  <g
     inkscape:groupmode="layer"
     id="layer2"
     inkscape:label="Surf"
     style="display:inline">
    <rect
       style="fill:#000000;fill-opacity:1;stroke:none;display:inline"
       id="rect3229-8"
       width="2.8106112"
       height="1.476016"
       x="271.74481"
       y="764.76422"
       inkscape:export-filename="/home/lexa/Workspaces/Eclipse 3.5 C/SimpleTestSuite/resources/linux/mime/icons/hicolor/scalable/apps/path2451.png"
       inkscape:export-xdpi="89.999916"
       inkscape:export-ydpi="89.999916" />
    <rect
       style="fill:#000000;fill-opacity:1;stroke:none;display:inline"
       id="rect3225-6"
       width="2.8106112"
       height="1.4545118"
       x="258.67477"
       y="786.05841"
       inkscape:export-filename="/home/lexa/Workspaces/Eclipse 3.5 C/SimpleTestSuite/resources/linux/mime/icons/hicolor/scalable/apps/path2451.png"
       inkscape:export-xdpi="89.999916"
       inkscape:export-ydpi="89.999916" />
    <path
       style="fill:#000000;fill-opacity:1;fill-rule:nonzero;stroke:#000000;stroke-width:0.21641304;stroke-opacity:1;display:inline"
       d="m 260.04122,756.78867 -20.20076,9.44823 2.83143,1.87481 c 1.56269,1.03386 1.32113,2.57838 -0.53773,3.4474 l -3.51183,1.63961 c -0.009,0.009 -0.009,0.0184 -0.009,0.0273 -0.0248,0.15237 -0.0229,0.28797 0,0.40304 0.0234,0.11494 0.0695,0.21217 0.1368,0.29573 0.066,0.084 0.15048,0.15114 0.25183,0.2083 0.20418,0.1151 0.47635,0.18298 0.7828,0.22844 0.30648,0.0466 0.64628,0.0669 1.00042,0.0876 0.35418,0.0206 0.72136,0.0405 1.06864,0.0811 0.18434,0.0212 0.33973,0.0702 0.51045,0.10721 l 2.59307,-1.20958 c 1.85895,-0.8691 4.63788,-0.73821 6.20054,0.29564 0.009,0.007 -0.009,0.009 0,0.009 l 2.83134,1.86813 20.20748,-9.44146 -14.15685,-9.36753 z m -2.64077,6.9686 c 1.12195,0.0534 2.20665,0.34992 2.98795,0.86685 1.56251,1.03383 1.3211,2.57837 -0.5377,3.4473 -1.85886,0.86902 -4.63791,0.7314 -6.20052,-0.30245 -1.51369,-1.00143 -1.3417,-2.48498 0.36084,-3.36654 0.0545,-0.0289 0.1187,-0.0532 0.17696,-0.0806 0.9294,-0.43451 2.09061,-0.61849 3.21247,-0.56445 z"
       id="path2451-0"
       inkscape:export-filename="/home/lexa/Workspaces/Eclipse 3.5 C/SimpleTestSuite/resources/linux/mime/icons/hicolor/scalable/apps/path2451.png"
       inkscape:export-xdpi="89.999916"
       inkscape:export-ydpi="89.999916" />
    <path
       style="fill:#000000;fill-opacity:1;fill-rule:nonzero;stroke:#000000;stroke-width:0.21641304;stroke-opacity:1;display:inline"
       d="m 261.34642,787.31224 c -0.17068,-0.037 -0.32595,-0.0863 -0.51046,-0.10702 -0.34719,-0.0412 -0.71449,-0.0588 -1.06863,-0.0811 -0.35412,-0.0201 -0.69408,-0.0426 -1.00051,-0.0876 -0.30649,-0.0466 -0.57843,-0.11245 -0.78273,-0.22856 -0.10279,-0.0566 -0.18543,-0.12418 -0.25184,-0.20836 -0.0659,-0.0838 -0.11163,-0.18054 -0.13638,-0.29563 -0.0234,-0.11495 -0.026,-0.251 0,-0.40329 0.009,-0.009 0.009,-0.0187 0.009,-0.0267 l -1.53816,0.71904 c -1.8589,0.86902 -4.63791,0.7381 -6.20051,-0.29578 l -2.83135,-1.87473 -20.20751,9.44804 14.15679,9.36086 20.20756,-9.44809 -2.83134,-1.86817 c -0.009,-0.007 -0.009,-0.009 -0.009,-0.009 -1.56252,-1.03368 -1.3211,-2.57821 0.53774,-3.44732 l 2.45701,-1.14914 z m -16.96099,4.07898 c 1.12189,0.0534 2.20658,0.34321 2.98794,0.86014 1.56255,1.03373 1.32117,2.57825 -0.53772,3.44735 -1.85886,0.86907 -4.63103,0.73803 -6.19364,-0.2957 -1.51379,-1.00149 -1.34188,-2.48502 0.36083,-3.36669 0.0545,-0.0285 0.11841,-0.053 0.17685,-0.0812 0.92944,-0.4346 2.08389,-0.61856 3.20574,-0.56445 z"
       id="path4108-6"
       inkscape:export-filename="/home/lexa/Workspaces/Eclipse 3.5 C/SimpleTestSuite/resources/linux/mime/icons/hicolor/scalable/apps/path2451.png"
       inkscape:export-xdpi="89.999916"
       inkscape:export-ydpi="89.999916" />
    <rect
       style="fill:#000000;fill-opacity:1;stroke:none;display:inline"
       id="rect3223"
       width="2.8106112"
       height="1.476016"
       x="226.55409"
       y="792.46332"
       inkscape:export-filename="/home/lexa/Workspaces/Eclipse 3.5 C/SimpleTestSuite/resources/linux/mime/icons/hicolor/scalable/apps/path2451.png"
       inkscape:export-xdpi="89.999916"
       inkscape:export-ydpi="89.999916" />
    <rect
       style="fill:#000000;fill-opacity:1;stroke:none;display:inline"
       id="rect3225"
       width="2.8106112"
       height="1.4545118"
       x="258.46796"
       y="792.46179"
       inkscape:export-filename="/home/lexa/Workspaces/Eclipse 3.5 C/SimpleTestSuite/resources/linux/mime/icons/hicolor/scalable/apps/path2451.png"
       inkscape:export-xdpi="89.999916"
       inkscape:export-ydpi="89.999916" />
    <rect
       style="fill:#000000;fill-opacity:1;stroke:none;display:inline"
       id="rect3227"
       width="2.8106112"
       height="1.4975184"
       x="239.89355"
       y="764.72272"
       inkscape:export-filename="/home/lexa/Workspaces/Eclipse 3.5 C/SimpleTestSuite/resources/linux/mime/icons/hicolor/scalable/apps/path2451.png"
       inkscape:export-xdpi="89.999916"
       inkscape:export-ydpi="89.999916" />
    <rect
       style="fill:#000000;fill-opacity:1;stroke:none;display:inline"
       id="rect3229"
       width="2.8106112"
       height="1.476016"
       x="238.55858"
       y="771.90363"
       inkscape:export-filename="/home/lexa/Workspaces/Eclipse 3.5 C/SimpleTestSuite/resources/linux/mime/icons/hicolor/scalable/apps/path2451.png"
       inkscape:export-xdpi="89.999916"
       inkscape:export-ydpi="89.999916" />
    <path
       style="fill:url(#radialGradient4110);fill-opacity:1;fill-rule:nonzero;stroke:#000000;stroke-width:0.21641304;stroke-opacity:1;display:inline"
       d="m 261.21314,786.0767 c -0.17072,-0.037 -0.32598,-0.0863 -0.51048,-0.107 -0.34719,-0.0412 -0.71444,-0.0584 -1.06859,-0.0807 -0.3541,-0.0203 -0.69398,-0.0426 -1.00042,-0.0878 -0.30643,-0.0462 -0.57858,-0.1123 -0.7828,-0.22837 -0.10278,-0.0564 -0.1855,-0.12417 -0.25185,-0.20843 -0.0656,-0.0837 -0.11191,-0.18061 -0.13694,-0.29563 -0.0233,-0.11494 -0.026,-0.251 0,-0.40317 0.009,-0.009 0.009,-0.0188 0.009,-0.0277 l -1.53811,0.71915 c -1.85893,0.86906 -4.63786,0.73807 -6.20044,-0.29564 l -2.83143,-1.87487 -20.20742,9.44818 14.15669,9.36088 20.20762,-9.4482 -2.83132,-1.86816 c -0.009,-0.007 -0.009,-0.009 -0.009,-0.009 -1.56257,-1.03384 -1.32121,-2.57834 0.53771,-3.44731 l 2.45701,-1.14913 z m -16.96103,4.07895 c 1.12194,0.0534 2.20659,0.34317 2.98787,0.86017 1.56269,1.03379 1.3212,2.57832 -0.53764,3.44721 -1.85887,0.86909 -4.63103,0.73819 -6.19361,-0.29556 -1.51369,-1.00152 -1.34178,-2.48516 0.36071,-3.36675 0.0545,-0.0285 0.11886,-0.0534 0.17693,-0.0808 0.92947,-0.43454 2.08384,-0.61859 3.20574,-0.5645 z"
       id="path4108"
       inkscape:export-filename="/home/lexa/Workspaces/Eclipse 3.5 C/SimpleTestSuite/resources/linux/mime/icons/hicolor/scalable/apps/path2451.png"
       inkscape:export-xdpi="89.999916"
       inkscape:export-ydpi="89.999916" />
    <path
       style="fill:url(#radialGradient4112);fill-opacity:1;fill-rule:nonzero;stroke:#000000;stroke-width:0.21641304;stroke-opacity:1;display:inline"
       d="m 260.22743,755.44779 -20.20077,9.44821 2.83135,1.87477 c 1.56253,1.03388 1.32122,2.57839 -0.53767,3.44737 l -3.51214,1.6397 c -0.009,0.009 -0.009,0.0188 -0.009,0.0273 -0.0257,0.15241 -0.0234,0.28803 0,0.40305 0.0233,0.11497 0.0695,0.21219 0.1367,0.29581 0.066,0.0838 0.15013,0.15106 0.25194,0.20827 0.20413,0.1151 0.47613,0.1829 0.78262,0.22852 0.30651,0.0466 0.64643,0.0668 1.00055,0.0876 0.35413,0.0203 0.72144,0.0405 1.0685,0.0807 0.18444,0.0211 0.33989,0.07 0.51048,0.10702 l 2.59312,-1.20961 c 1.85889,-0.86903 4.638,-0.73818 6.20049,0.29569 0.009,0.007 -0.009,0.009 0,0.009 l 2.83138,1.8681 20.20747,-9.44142 -14.15675,-9.36755 z m -2.6409,6.96858 c 1.12198,0.0533 2.20668,0.34993 2.98794,0.86691 1.56266,1.03378 1.32119,2.57827 -0.53767,3.44722 -1.85892,0.86902 -4.63783,0.73149 -6.20039,-0.30245 -1.51378,-1.00136 -1.34191,-2.485 0.36075,-3.36656 0.0545,-0.0285 0.11855,-0.0532 0.17691,-0.0807 0.92946,-0.43447 2.09064,-0.61845 3.21246,-0.56446 z"
       id="path2451"
       inkscape:export-xdpi="89.999916"
       inkscape:export-ydpi="89.999916" />
  </g>
  <g
     inkscape:groupmode="layer"
     id="layer3"
     inkscape:label="Measurements"
     style="display:inline" />
</svg>
